<svg xmlns="http://www.w3.org/2000/svg" xmlns:xlink="http://www.w3.org/1999/xlink" width="500" zoomAndPan="magnify" viewBox="0 0 375 374.999991" height="500" preserveAspectRatio="xMidYMid meet" version="1.2"><defs><clipPath id="0c198dd648"><path d="M 255.078125 174.285156 L 263.078125 174.285156 L 263.078125 182.351562 L 255.078125 182.351562 Z M 255.078125 174.285156 "/></clipPath><clipPath id="faf2235aa7"><path d="M 259.078125 174.285156 C 256.867188 174.285156 255.078125 176.089844 255.078125 178.316406 C 255.078125 180.539062 256.867188 182.34375 259.078125 182.34375 C 261.289062 182.34375 263.078125 180.539062 263.078125 178.316406 C 263.078125 176.089844 261.289062 174.285156 259.078125 174.285156 Z M 259.078125 174.285156 "/></clipPath><clipPath id="534d667e8e"><path d="M 74.613281 66.421875 L 300.363281 66.421875 L 300.363281 293.664062 L 74.613281 293.664062 Z M 74.613281 66.421875 "/></clipPath><clipPath id="7e85829867"><path d="M 187.476562 66.421875 C 125.144531 66.421875 74.613281 117.292969 74.613281 180.042969 C 74.613281 242.792969 125.144531 293.664062 187.476562 293.664062 C 249.808594 293.664062 300.339844 242.792969 300.339844 180.042969 C 300.339844 117.292969 249.808594 66.421875 187.476562 66.421875 Z M 187.476562 66.421875 "/></clipPath><clipPath id="3340d59575"><path d="M 93.015625 84.945312 L 281.984375 84.945312 L 281.984375 275.390625 L 93.015625 275.390625 Z M 93.015625 84.945312 "/></clipPath><clipPath id="0b43372b50"><path d="M 187.5 84.945312 C 135.316406 84.945312 93.015625 127.53125 93.015625 180.0625 C 93.015625 232.597656 135.316406 275.183594 187.5 275.183594 C 239.683594 275.183594 281.984375 232.597656 281.984375 180.0625 C 281.984375 127.53125 239.683594 84.945312 187.5 84.945312 Z M 187.5 84.945312 "/></clipPath><clipPath id="2d88e709fa"><path d="M 116.515625 133.695312 L 128.355469 133.695312 L 128.355469 145.625 L 116.515625 145.625 Z M 116.515625 133.695312 "/></clipPath><clipPath id="96814d1a23"><path d="M 122.433594 133.695312 C 119.164062 133.695312 116.515625 136.363281 116.515625 139.652344 C 116.515625 142.945312 119.164062 145.613281 122.433594 145.613281 C 125.703125 145.613281 128.355469 142.945312 128.355469 139.652344 C 128.355469 136.363281 125.703125 133.695312 122.433594 133.695312 Z M 122.433594 133.695312 "/></clipPath><clipPath id="6af5179d7b"><path d="M 239.246094 125.296875 L 255.078125 125.296875 L 255.078125 141.253906 L 239.246094 141.253906 Z M 239.246094 125.296875 "/></clipPath><clipPath id="3284cb8bcf"><path d="M 247.160156 125.296875 C 242.789062 125.296875 239.246094 128.867188 239.246094 133.269531 C 239.246094 137.667969 242.789062 141.238281 247.160156 141.238281 C 251.535156 141.238281 255.078125 137.667969 255.078125 133.269531 C 255.078125 128.867188 251.535156 125.296875 247.160156 125.296875 Z M 247.160156 125.296875 "/></clipPath><clipPath id="9c1c62b3d3"><path d="M 145.464844 55 L 197 55 L 197 129 L 145.464844 129 Z M 145.464844 55 "/></clipPath><clipPath id="255d117668"><path d="M 198.804688 61 L 246.816406 61 L 246.816406 127.726562 L 198.804688 127.726562 Z M 198.804688 61 "/></clipPath><clipPath id="2569bb9b2b"><path d="M 187.714844 130.613281 L 205 130.613281 L 205 148.597656 L 187.714844 148.597656 Z M 187.714844 130.613281 "/></clipPath></defs><g id="8da566bbc3"><rect x="0" width="375" y="0" height="374.999991" style="fill:#ffffff;fill-opacity:1;stroke:none;"/><rect x="0" width="375" y="0" height="374.999991" style="fill:#ffffff;fill-opacity:1;stroke:none;"/><g clip-rule="nonzero" clip-path="url(#0c198dd648)"><g clip-rule="nonzero" clip-path="url(#faf2235aa7)"><path style=" stroke:none;fill-rule:nonzero;fill:#ffffff;fill-opacity:1;" d="M 255.078125 174.285156 L 263.078125 174.285156 L 263.078125 182.351562 L 255.078125 182.351562 Z M 255.078125 174.285156 "/></g></g><g clip-rule="nonzero" clip-path="url(#534d667e8e)"><g clip-rule="nonzero" clip-path="url(#7e85829867)"><path style="fill:none;stroke-width:16;stroke-linecap:butt;stroke-linejoin:miter;stroke:#8c52ff;stroke-opacity:1;stroke-miterlimit:4;" d="M 150.507506 -0.0013728 C 67.385265 -0.0013728 -0.000165293 67.837253 -0.000165293 151.516872 C -0.000165293 235.196491 67.385265 303.035116 150.507506 303.035116 C 233.629747 303.035116 301.015178 235.196491 301.015178 151.516872 C 301.015178 67.837253 233.629747 -0.0013728 150.507506 -0.0013728 Z M 150.507506 -0.0013728 " transform="matrix(0.749884,0,0,0.749884,74.613405,66.422904)"/></g></g><g clip-rule="nonzero" clip-path="url(#3340d59575)"><g clip-rule="nonzero" clip-path="url(#0b43372b50)"><path style=" stroke:none;fill-rule:nonzero;fill:#8c52ff;fill-opacity:1;" d="M 93.015625 84.945312 L 281.984375 84.945312 L 281.984375 275.390625 L 93.015625 275.390625 Z M 93.015625 84.945312 "/></g></g><g clip-rule="nonzero" clip-path="url(#2d88e709fa)"><g clip-rule="nonzero" clip-path="url(#96814d1a23)"><path style=" stroke:none;fill-rule:nonzero;fill:#ffffff;fill-opacity:1;" d="M 116.515625 133.695312 L 128.355469 133.695312 L 128.355469 145.625 L 116.515625 145.625 Z M 116.515625 133.695312 "/></g></g><g clip-rule="nonzero" clip-path="url(#6af5179d7b)"><g clip-rule="nonzero" clip-path="url(#3284cb8bcf)"><path style=" stroke:none;fill-rule:nonzero;fill:#ffffff;fill-opacity:1;" d="M 239.246094 125.296875 L 255.078125 125.296875 L 255.078125 141.253906 L 239.246094 141.253906 Z M 239.246094 125.296875 "/></g></g><path style=" stroke:none;fill-rule:nonzero;fill:#ffffff;fill-opacity:1;" d="M 195.042969 141.714844 C 195.0625 141.605469 195.082031 141.496094 195.105469 141.425781 C 195.113281 141.402344 195.121094 141.382812 195.128906 141.363281 C 195.222656 141.222656 195.292969 141.003906 195.367188 140.863281 C 195.546875 140.523438 195.742188 140.195312 195.949219 139.871094 C 195.8125 140.191406 195.679688 140.507812 195.53125 140.820312 C 195.386719 141.128906 195.21875 141.421875 195.042969 141.714844 Z M 199.6875 133.605469 C 199.554688 133.257812 199.355469 132.9375 199.105469 132.707031 C 198.597656 132.242188 197.933594 131.894531 197.222656 131.925781 C 196.476562 131.960938 195.925781 132.242188 195.34375 132.707031 C 193.613281 134.078125 192.136719 135.820312 191.027344 137.730469 C 189.71875 139.984375 188.9375 142.921875 190.535156 145.261719 C 191.460938 146.613281 192.90625 147.515625 194.578125 147.511719 C 196.050781 147.507812 197.410156 146.816406 198.476562 145.84375 C 199.335938 145.058594 199.910156 144.011719 200.371094 142.957031 C 200.789062 141.992188 201.265625 141.101562 201.765625 140.179688 C 202.605469 138.625 202.90625 136.722656 201.882812 135.167969 C 201.371094 134.386719 200.566406 133.847656 199.6875 133.605469 "/><path style=" stroke:none;fill-rule:nonzero;fill:#ffffff;fill-opacity:1;" d="M 239.636719 69.730469 C 239.636719 69.726562 239.636719 69.726562 239.636719 69.726562 C 239.632812 69.734375 239.632812 69.742188 239.628906 69.75 C 239.628906 69.753906 239.628906 69.753906 239.628906 69.753906 C 239.632812 69.746094 239.636719 69.734375 239.636719 69.730469 "/><path style=" stroke:none;fill-rule:nonzero;fill:#ffffff;fill-opacity:1;" d="M 239.625 69.773438 C 239.625 69.765625 239.628906 69.757812 239.628906 69.75 C 239.621094 69.730469 239.617188 69.695312 239.613281 69.65625 C 239.621094 69.679688 239.628906 69.707031 239.636719 69.726562 C 239.640625 69.714844 239.640625 69.703125 239.644531 69.691406 C 239.644531 69.691406 239.644531 69.695312 239.648438 69.695312 C 239.644531 69.703125 239.640625 69.71875 239.636719 69.730469 C 239.644531 69.757812 239.648438 69.773438 239.640625 69.765625 C 239.636719 69.765625 239.632812 69.757812 239.628906 69.753906 C 239.628906 69.761719 239.628906 69.765625 239.625 69.773438 Z M 239.300781 69.441406 C 239.488281 69.523438 239.589844 69.617188 239.300781 69.441406 Z M 239.546875 69.558594 C 239.5625 69.574219 239.582031 69.589844 239.597656 69.609375 C 239.597656 69.609375 239.597656 69.609375 239.597656 69.613281 C 239.601562 69.625 239.605469 69.632812 239.609375 69.644531 C 239.609375 69.671875 239.605469 69.703125 239.605469 69.742188 C 239.574219 69.691406 239.550781 69.628906 239.546875 69.558594 Z M 240.996094 64.402344 C 239.980469 64.027344 238.871094 63.929688 237.789062 64.070312 C 237.683594 63.546875 237.441406 63.066406 237.074219 62.730469 C 235.921875 61.671875 234.472656 61.792969 233.316406 62.730469 C 226.957031 67.882812 222.964844 75.265625 219.394531 82.476562 C 215.214844 90.914062 211.0625 99.367188 206.925781 107.828125 C 204.621094 112.539062 202.386719 117.320312 200.828125 122.339844 C 200.214844 124.304688 202.195312 126.117188 204.097656 125.609375 C 212.375 123.402344 217.042969 115.515625 221.347656 108.773438 C 226.710938 100.375 232.070312 91.976562 237.433594 83.582031 C 238.78125 81.46875 240.132812 79.351562 241.484375 77.238281 C 242.882812 75.046875 244.644531 72.828125 244.902344 70.15625 C 245.160156 67.480469 243.414062 65.292969 240.996094 64.402344 "/><path style=" stroke:none;fill-rule:nonzero;fill:#ffffff;fill-opacity:1;" d="M 175.882812 135.085938 C 175.535156 134.949219 175.179688 134.847656 174.816406 134.773438 C 174.253906 134.515625 173.550781 134.371094 172.96875 134.601562 C 172.925781 134.617188 172.886719 134.636719 172.84375 134.652344 C 171.964844 134.730469 171.097656 134.972656 170.304688 135.398438 C 169.378906 135.894531 168.507812 136.75 168.082031 137.714844 C 167.746094 138.464844 167.59375 139.011719 167.511719 139.828125 C 167.449219 140.410156 167.527344 141.003906 167.644531 141.578125 C 168.085938 143.742188 170.039062 145.507812 172.152344 145.992188 C 174.304688 146.480469 176.671875 145.910156 178.230469 144.296875 C 179.984375 142.476562 180.476562 139.386719 178.964844 137.25 C 178.230469 136.214844 177.15625 135.351562 175.882812 135.085938 "/><path style=" stroke:none;fill-rule:nonzero;fill:#ffffff;fill-opacity:1;" d="M 184.265625 58.914062 C 176.765625 55.601562 167.851562 56.25 160.707031 60.183594 C 154.082031 63.828125 149.15625 70.511719 147.539062 77.890625 C 147.316406 78.90625 147.171875 79.9375 147.050781 80.972656 C 146.886719 82.347656 148.398438 83.703125 149.707031 83.628906 C 152.183594 83.492188 154.660156 83.351562 157.136719 83.214844 C 157.53125 83.191406 157.925781 83.085938 158.28125 82.910156 C 158.882812 82.695312 159.449219 82.308594 159.753906 81.730469 C 160.058594 81.152344 160.113281 80.613281 160.058594 80 C 160.070312 80.082031 160.074219 80.121094 160.066406 79.996094 C 160.058594 79.917969 160.050781 79.839844 160.042969 79.761719 C 160.023438 79.578125 160.015625 79.394531 160.007812 79.210938 C 159.992188 78.871094 159.992188 78.53125 160.007812 78.191406 C 160.015625 78.007812 160.027344 77.824219 160.046875 77.640625 C 160.046875 77.621094 160.050781 77.585938 160.054688 77.542969 C 160.070312 77.449219 160.09375 77.308594 160.101562 77.257812 C 160.140625 77.050781 160.183594 76.847656 160.230469 76.640625 C 160.304688 76.335938 160.386719 76.03125 160.484375 75.730469 C 160.539062 75.554688 160.597656 75.382812 160.660156 75.207031 C 160.679688 75.152344 160.75 74.984375 160.789062 74.878906 C 160.8125 74.824219 160.835938 74.773438 160.847656 74.75 C 160.925781 74.585938 161.007812 74.417969 161.09375 74.257812 C 161.25 73.953125 161.421875 73.65625 161.601562 73.367188 C 161.777344 73.089844 161.964844 72.820312 162.15625 72.558594 C 162.289062 72.398438 162.421875 72.238281 162.5625 72.082031 C 163.003906 71.59375 163.503906 71.191406 163.984375 70.75 C 163.996094 70.738281 164.007812 70.730469 164.019531 70.722656 C 164.167969 70.617188 164.320312 70.515625 164.472656 70.414062 C 164.761719 70.230469 165.058594 70.058594 165.359375 69.902344 C 165.519531 69.820312 165.679688 69.742188 165.839844 69.667969 C 166.175781 69.550781 166.503906 69.425781 166.847656 69.328125 C 167.148438 69.242188 167.453125 69.167969 167.761719 69.105469 C 167.910156 69.078125 168.070312 69.058594 168.222656 69.027344 C 168.246094 69.023438 168.273438 69.019531 168.300781 69.019531 C 168.980469 68.953125 169.664062 68.945312 170.347656 68.988281 C 170.519531 69 170.695312 69.015625 170.871094 69.03125 C 171.214844 69.09375 171.558594 69.15625 171.898438 69.238281 C 172.203125 69.3125 172.507812 69.398438 172.808594 69.496094 C 172.984375 69.550781 173.160156 69.613281 173.332031 69.675781 C 173.375 69.691406 173.421875 69.710938 173.464844 69.726562 C 174.039062 70.015625 174.613281 70.28125 175.160156 70.632812 C 175.3125 70.730469 175.464844 70.835938 175.613281 70.941406 C 175.628906 70.949219 175.648438 70.964844 175.675781 70.984375 C 175.734375 71.035156 175.898438 71.164062 175.941406 71.203125 C 176.101562 71.339844 176.257812 71.480469 176.410156 71.625 C 176.660156 71.867188 176.898438 72.117188 177.125 72.378906 C 177.210938 72.480469 177.292969 72.589844 177.378906 72.691406 C 177.417969 72.746094 177.460938 72.800781 177.5 72.859375 C 177.9375 73.488281 178.320312 74.15625 178.640625 74.851562 C 178.65625 74.882812 178.667969 74.910156 178.679688 74.9375 C 178.726562 75.066406 178.785156 75.195312 178.832031 75.320312 C 178.96875 75.699219 179.089844 76.078125 179.199219 76.464844 C 179.390625 77.144531 179.5 77.832031 179.628906 78.519531 C 179.632812 78.5625 179.636719 78.605469 179.644531 78.644531 C 179.664062 78.847656 179.679688 79.046875 179.691406 79.25 C 179.71875 79.65625 179.734375 80.0625 179.734375 80.46875 C 179.738281 81.226562 179.695312 81.980469 179.613281 82.730469 C 179.609375 82.757812 179.605469 82.785156 179.601562 82.8125 C 179.578125 82.980469 179.550781 83.148438 179.523438 83.3125 C 179.449219 83.726562 179.363281 84.140625 179.269531 84.546875 C 179.066406 85.414062 178.820312 86.269531 178.535156 87.109375 C 178.410156 87.484375 178.273438 87.855469 178.132812 88.226562 C 178.050781 88.441406 177.964844 88.65625 177.878906 88.871094 C 177.875 88.878906 177.863281 88.914062 177.851562 88.953125 C 177.839844 88.976562 177.824219 89.011719 177.800781 89.058594 C 177.457031 89.84375 177.089844 90.625 176.703125 91.394531 C 173.449219 97.839844 168.9375 103.628906 166.726562 110.582031 C 166.117188 112.496094 165.738281 114.453125 165.476562 116.445312 C 165.238281 118.257812 165.101562 120.074219 165.414062 121.886719 C 165.757812 123.902344 167.074219 125.683594 168.96875 126.480469 C 170.703125 127.210938 172.5625 127.128906 174.367188 126.722656 C 175.054688 126.566406 175.730469 126.351562 176.394531 126.113281 C 177.398438 125.753906 178.480469 124.746094 178.34375 123.546875 C 178.230469 122.519531 178.183594 121.484375 178.210938 120.449219 C 178.222656 119.949219 178.253906 119.449219 178.300781 118.953125 C 178.316406 118.777344 178.335938 118.601562 178.355469 118.425781 C 178.40625 118.285156 178.414062 118 178.433594 117.871094 C 178.757812 115.882812 179.308594 113.929688 180 112.035156 C 180.175781 111.5625 180.359375 111.089844 180.550781 110.621094 C 180.582031 110.539062 180.746094 110.132812 180.609375 110.472656 C 180.484375 110.789062 180.613281 110.472656 180.636719 110.417969 C 180.757812 110.140625 180.878906 109.863281 181.007812 109.585938 C 181.445312 108.625 181.921875 107.675781 182.414062 106.738281 C 183.390625 104.878906 184.445312 103.070312 185.515625 101.265625 C 189.84375 93.96875 194.421875 86.378906 194.792969 77.664062 C 195.117188 70.046875 191.480469 62.101562 184.265625 58.914062 "/><g clip-rule="nonzero" clip-path="url(#9c1c62b3d3)"><path style=" stroke:none;fill-rule:nonzero;fill:#000000;fill-opacity:1;" d="M 192.527344 87.671875 C 191.007812 91.613281 188.226562 94.945312 185.824219 98.367188 C 180.746094 105.597656 177.695312 114.058594 177.152344 122.890625 C 177.109375 123.558594 177.089844 124.230469 177.078125 124.898438 C 174.359375 125.1875 171.644531 125.519531 168.925781 125.796875 C 167.40625 123.808594 166.605469 121.121094 166.40625 118.625 C 166.152344 115.476562 166.6875 112.609375 167.898438 109.675781 C 170.632812 103.035156 175.695312 97.667969 178.546875 91.082031 C 179.914062 87.925781 180.855469 84.519531 180.644531 81.050781 C 180.457031 78.007812 179.515625 74.960938 177.640625 72.523438 C 175.59375 69.867188 172.460938 68.0625 169.050781 68.085938 C 165.726562 68.105469 162.921875 70.007812 161.226562 72.789062 C 160.457031 74.054688 159.902344 75.46875 159.527344 76.898438 C 159.15625 78.316406 159.082031 79.921875 158.828125 81.230469 C 158.714844 81.839844 158.59375 82.308594 158.207031 82.582031 C 157.65625 82.976562 156.8125 82.914062 156.148438 82.925781 C 154.164062 82.957031 152.183594 82.878906 150.207031 82.691406 C 149.539062 82.628906 148.871094 82.546875 148.207031 82.457031 C 147.675781 75.058594 151.382812 67.777344 157.335938 63.386719 C 160.558594 61.007812 164.273438 59.394531 168.171875 58.515625 C 171.929688 57.667969 175.941406 57.449219 179.710938 58.21875 C 183.464844 58.984375 186.933594 60.738281 189.359375 63.769531 C 191.839844 66.871094 193.050781 70.890625 193.664062 74.757812 C 194.347656 79.066406 194.105469 83.582031 192.527344 87.671875 Z M 196.488281 75.988281 C 196.015625 71.65625 194.855469 67.214844 192.445312 63.53125 C 190.09375 59.941406 186.605469 57.457031 182.519531 56.191406 C 178.464844 54.9375 174.136719 54.878906 169.96875 55.488281 C 165.769531 56.097656 161.644531 57.527344 158.015625 59.734375 C 150.746094 64.15625 145.617188 72.003906 145.484375 80.640625 C 145.46875 81.636719 145.53125 82.632812 145.664062 83.621094 C 145.730469 84.152344 146.023438 84.808594 146.636719 84.902344 C 148.644531 85.210938 150.660156 85.429688 152.6875 85.527344 C 153.695312 85.578125 154.707031 85.597656 155.714844 85.589844 C 156.597656 85.582031 157.511719 85.585938 158.375 85.367188 C 160.152344 84.925781 161.15625 83.4375 161.433594 81.703125 C 161.679688 80.1875 161.726562 78.957031 162.132812 77.453125 C 162.503906 76.089844 162.972656 74.9375 163.765625 73.75 C 164.441406 72.738281 165.347656 71.878906 166.488281 71.3125 C 169.097656 70.019531 172.507812 71.078125 174.539062 73.015625 C 176.464844 74.855469 177.566406 77.535156 177.898438 80.101562 C 178.308594 83.300781 177.582031 86.476562 176.378906 89.433594 C 173.6875 96.054688 168.644531 101.398438 165.773438 107.933594 C 164.445312 110.949219 163.628906 114.074219 163.6875 117.394531 C 163.738281 120.476562 164.433594 123.667969 166.054688 126.316406 C 166.445312 126.960938 166.902344 127.5625 167.394531 128.128906 C 167.480469 128.230469 167.585938 128.300781 167.699219 128.363281 C 167.890625 128.476562 168.105469 128.542969 168.335938 128.519531 C 171.691406 128.191406 175.039062 127.746094 178.398438 127.417969 C 179.109375 127.347656 179.734375 126.867188 179.726562 126.089844 C 179.65625 117.140625 182.324219 108.308594 187.3125 100.882812 C 189.753906 97.246094 192.65625 93.863281 194.476562 89.84375 C 196.4375 85.507812 197.003906 80.703125 196.488281 75.988281 "/></g><path style=" stroke:none;fill-rule:nonzero;fill:#000000;fill-opacity:1;" d="M 178.449219 142.855469 C 177.757812 143.722656 176.875 144.316406 175.902344 144.628906 C 173.75 145.316406 171.421875 144.742188 169.929688 143.074219 C 168.574219 141.558594 168.410156 139.292969 169.527344 137.539062 C 170.632812 135.8125 172.960938 134.871094 175.003906 135.230469 C 176.285156 135.453125 177.3125 135.992188 178.164062 136.902344 C 178.953125 137.746094 179.398438 138.886719 179.414062 140.039062 C 179.398438 141.039062 179.035156 142.113281 178.449219 142.855469 Z M 176.753906 132.9375 C 173.746094 131.898438 170.109375 132.769531 168.003906 135.179688 C 165.898438 137.589844 165.484375 141.144531 167.234375 143.882812 C 169.042969 146.714844 172.453125 148.003906 175.710938 147.414062 C 179.261719 146.773438 182.023438 143.667969 182.070312 140.039062 C 182.03125 136.753906 179.816406 133.996094 176.753906 132.9375 "/><g clip-rule="nonzero" clip-path="url(#255d117668)"><path style=" stroke:none;fill-rule:nonzero;fill:#000000;fill-opacity:1;" d="M 243.699219 71.527344 C 243.109375 72.734375 242.375 73.878906 241.703125 75.039062 C 241.019531 76.214844 240.335938 77.390625 239.648438 78.5625 C 234.195312 87.894531 228.601562 97.160156 222.269531 105.925781 C 219.125 110.28125 215.796875 114.5 212.226562 118.511719 C 211.324219 119.523438 210.40625 120.523438 209.476562 121.507812 C 208.667969 122.363281 207.851562 123.257812 206.890625 123.945312 C 206.015625 124.578125 205.050781 125.050781 204.003906 125.007812 C 203.707031 124.996094 203.507812 124.9375 203.203125 124.761719 C 203.175781 124.746094 203.15625 124.726562 203.128906 124.710938 C 203.109375 124.703125 203.089844 124.691406 203.070312 124.679688 C 202.800781 124.503906 202.421875 124.125 202.257812 123.871094 C 201.785156 123.140625 201.578125 122.488281 201.566406 121.695312 C 201.574219 121.648438 201.585938 121.605469 201.59375 121.554688 C 201.722656 120.925781 201.945312 120.320312 202.210938 119.734375 C 203.394531 117.109375 204.675781 114.523438 205.917969 111.921875 C 208.414062 106.683594 210.933594 101.453125 213.523438 96.257812 C 216.097656 91.101562 218.738281 85.972656 221.496094 80.910156 C 222.882812 78.363281 224.296875 75.832031 225.746094 73.320312 C 227.121094 70.945312 228.449219 68.496094 230.003906 66.230469 C 230.625 65.328125 231.398438 64.4375 232.433594 64.003906 C 233.386719 63.609375 234.46875 63.617188 235.464844 63.824219 C 237.785156 64.300781 240.089844 65.503906 242.039062 66.832031 C 242.8125 67.359375 243.523438 67.984375 243.941406 68.816406 C 244.066406 69.0625 244.171875 69.503906 244.171875 69.832031 C 244.171875 70.421875 243.960938 71.003906 243.699219 71.527344 Z M 246.238281 67.476562 C 245.121094 65.292969 242.695312 64.007812 240.597656 62.949219 C 238.074219 61.671875 235.117188 60.507812 232.257812 61.273438 C 229.46875 62.015625 227.929688 64.453125 226.527344 66.773438 C 224.917969 69.4375 223.351562 72.125 221.820312 74.835938 C 218.796875 80.195312 215.921875 85.636719 213.136719 91.125 C 210.347656 96.617188 207.652344 102.152344 204.992188 107.707031 C 203.648438 110.515625 202.3125 113.328125 200.976562 116.140625 C 200.324219 117.515625 199.558594 118.898438 199.144531 120.371094 C 199.089844 120.574219 199.046875 120.773438 199.007812 120.972656 C 198.953125 121.117188 198.917969 121.269531 198.910156 121.429688 C 198.90625 121.5625 198.90625 121.695312 198.910156 121.832031 C 198.871094 122.710938 199.042969 123.570312 199.449219 124.433594 C 199.933594 125.464844 200.742188 126.5 201.785156 127.007812 C 201.804688 127.015625 201.820312 127.019531 201.839844 127.03125 C 202.082031 127.171875 202.332031 127.296875 202.59375 127.394531 C 205.253906 128.414062 208.007812 126.644531 209.875 124.894531 C 211.898438 122.996094 213.730469 120.851562 215.542969 118.75 C 217.472656 116.515625 219.328125 114.214844 221.128906 111.875 C 228.171875 102.738281 234.273438 92.921875 240.128906 82.996094 C 241.613281 80.484375 243.082031 77.960938 244.546875 75.4375 C 245.285156 74.167969 246.128906 72.898438 246.570312 71.484375 C 246.988281 70.140625 246.878906 68.726562 246.238281 67.476562 "/></g><g clip-rule="nonzero" clip-path="url(#2569bb9b2b)"><path style=" stroke:none;fill-rule:nonzero;fill:#000000;fill-opacity:1;" d="M 202.050781 138.390625 C 201.683594 139.128906 201.136719 139.785156 200.65625 140.453125 C 200.128906 141.183594 199.597656 141.917969 199.070312 142.652344 C 198.566406 143.351562 198.082031 144.078125 197.546875 144.757812 C 197.175781 145.230469 196.753906 145.683594 196.167969 145.847656 C 194.953125 146.191406 193.308594 145.6875 192.230469 145.113281 C 191.070312 144.5 190.257812 143.515625 190.445312 142.144531 C 190.652344 140.609375 191.492188 139.09375 192.308594 137.777344 C 192.929688 136.984375 193.492188 136.148438 194.066406 135.320312 C 194.605469 134.675781 195.191406 134.066406 195.8125 133.496094 C 196.15625 133.328125 196.527344 133.265625 196.914062 133.398438 C 197.527344 133.605469 198.085938 134.089844 198.617188 134.464844 C 199.289062 134.9375 200.015625 135.304688 200.710938 135.734375 C 201.738281 136.367188 202.644531 137.195312 202.050781 138.390625 Z M 201.449219 133.085938 C 200.65625 132.628906 199.921875 132.117188 199.164062 131.605469 C 198.226562 130.972656 197.15625 130.550781 196.011719 130.699219 C 194.9375 130.835938 193.992188 131.386719 193.21875 132.132812 C 192.632812 132.695312 192.132812 133.386719 191.65625 134.089844 C 191.160156 134.722656 190.6875 135.371094 190.257812 136.046875 C 190.195312 136.144531 190.132812 136.246094 190.074219 136.34375 C 190.046875 136.375 190.019531 136.410156 189.996094 136.441406 C 189.863281 136.59375 189.765625 136.769531 189.703125 136.953125 C 188.890625 138.332031 188.164062 139.855469 187.886719 141.402344 C 187.527344 143.421875 188.15625 145.363281 189.78125 146.664062 C 191.300781 147.878906 193.425781 148.578125 195.375 148.597656 C 196.367188 148.605469 197.402344 148.367188 198.21875 147.78125 C 199.015625 147.207031 199.589844 146.453125 200.164062 145.664062 C 201.414062 143.933594 202.714844 142.226562 203.910156 140.453125 C 204.480469 139.609375 204.953125 138.617188 204.929688 137.570312 C 204.90625 136.539062 204.449219 135.617188 203.789062 134.839844 C 203.152344 134.09375 202.292969 133.566406 201.449219 133.085938 "/></g><path style=" stroke:none;fill-rule:nonzero;fill:#ffffff;fill-opacity:1;" d="M 85.175781 181.359375 C 85.105469 180.742188 85.0625 180.121094 85.050781 179.5 C 85.035156 178.878906 85.054688 178.261719 85.101562 177.640625 C 85.152344 177.019531 85.230469 176.40625 85.335938 175.792969 C 85.445312 175.179688 85.582031 174.574219 85.75 173.976562 C 85.917969 173.378906 86.113281 172.789062 86.339844 172.210938 C 86.5625 171.632812 86.816406 171.0625 87.097656 170.507812 C 87.375 169.953125 87.683594 169.414062 88.015625 168.890625 C 88.347656 168.363281 88.703125 167.855469 89.085938 167.367188 C 89.46875 166.878906 89.875 166.40625 90.300781 165.957031 C 90.730469 165.503906 91.179688 165.078125 91.648438 164.671875 C 92.117188 164.261719 92.605469 163.878906 93.113281 163.519531 C 93.621094 163.164062 94.144531 162.828125 94.683594 162.519531 C 95.222656 162.210938 95.777344 161.929688 96.34375 161.675781 C 96.910156 161.421875 97.488281 161.195312 98.078125 161 C 98.667969 160.800781 99.265625 160.632812 99.871094 160.492188 C 100.476562 160.355469 101.089844 160.242188 101.703125 160.164062 C 159.164062 154.082031 216.621094 154.109375 274.070312 160.246094 C 274.6875 160.328125 275.300781 160.4375 275.90625 160.578125 C 276.511719 160.71875 277.105469 160.886719 277.695312 161.085938 C 278.285156 161.285156 278.863281 161.511719 279.429688 161.765625 C 279.996094 162.019531 280.550781 162.300781 281.089844 162.609375 C 281.628906 162.917969 282.152344 163.253906 282.660156 163.613281 C 283.164062 163.972656 283.652344 164.355469 284.125 164.761719 C 284.59375 165.171875 285.039062 165.597656 285.46875 166.050781 C 285.894531 166.5 286.300781 166.972656 286.683594 167.460938 C 287.0625 167.953125 287.421875 168.460938 287.753906 168.984375 C 288.085938 169.511719 288.390625 170.050781 288.671875 170.605469 C 288.949219 171.160156 289.203125 171.730469 289.425781 172.308594 C 289.648438 172.886719 289.84375 173.476562 290.011719 174.074219 C 290.179688 174.675781 290.316406 175.28125 290.425781 175.890625 C 290.53125 176.503906 290.609375 177.121094 290.65625 177.738281 C 290.703125 178.359375 290.722656 178.980469 290.707031 179.601562 C 290.695312 180.222656 290.652344 180.839844 290.578125 181.457031 L 285.625 219.371094 C 285.550781 220 285.449219 220.621094 285.3125 221.238281 C 285.175781 221.855469 285.011719 222.464844 284.816406 223.0625 C 284.621094 223.664062 284.394531 224.253906 284.140625 224.832031 C 283.886719 225.410156 283.605469 225.972656 283.296875 226.523438 C 282.988281 227.074219 282.652344 227.605469 282.289062 228.125 C 281.925781 228.640625 281.539062 229.136719 281.125 229.617188 C 280.714844 230.09375 280.28125 230.550781 279.824219 230.988281 C 279.367188 231.421875 278.886719 231.832031 278.390625 232.222656 C 277.890625 232.609375 277.375 232.972656 276.84375 233.308594 C 276.308594 233.644531 275.757812 233.957031 275.195312 234.238281 C 274.628906 234.519531 274.050781 234.773438 273.464844 235 C 272.875 235.226562 272.273438 235.421875 271.664062 235.585938 C 271.054688 235.753906 270.441406 235.886719 269.816406 235.992188 C 269.195312 236.097656 268.570312 236.171875 267.9375 236.214844 C 267.308594 236.257812 266.679688 236.269531 266.046875 236.25 C 265.417969 236.230469 264.789062 236.179688 264.160156 236.097656 C 213.289062 230.789062 162.417969 230.761719 111.542969 236.023438 C 110.914062 236.105469 110.285156 236.15625 109.65625 236.175781 C 109.023438 236.195312 108.394531 236.179688 107.765625 236.136719 C 107.132812 236.09375 106.507812 236.019531 105.886719 235.914062 C 105.261719 235.808594 104.648438 235.671875 104.039062 235.507812 C 103.429688 235.339844 102.832031 235.144531 102.242188 234.917969 C 101.652344 234.691406 101.074219 234.4375 100.511719 234.152344 C 99.945312 233.871094 99.398438 233.558594 98.863281 233.222656 C 98.332031 232.886719 97.816406 232.523438 97.316406 232.132812 C 96.820312 231.746094 96.34375 231.332031 95.886719 230.898438 C 95.429688 230.460938 94.996094 230.003906 94.582031 229.527344 C 94.171875 229.046875 93.785156 228.550781 93.421875 228.03125 C 93.0625 227.515625 92.726562 226.980469 92.414062 226.429688 C 92.105469 225.878906 91.824219 225.316406 91.570312 224.738281 C 91.320312 224.160156 91.09375 223.570312 90.898438 222.96875 C 90.703125 222.371094 90.539062 221.761719 90.40625 221.144531 C 90.269531 220.527344 90.167969 219.90625 90.09375 219.277344 Z M 85.175781 181.359375 "/><g style="fill:#000000;fill-opacity:1;"><g transform="translate(107.761349, 213.541905)"><path style="stroke:none" d="M 1.96875 -3.671875 C 1.238281 -4.441406 0.851562 -5.035156 0.8125 -5.453125 C 0.78125 -5.878906 1.097656 -6.5 1.765625 -7.3125 C 2.441406 -8.132812 2.894531 -8.585938 3.125 -8.671875 C 3.363281 -8.753906 3.59375 -8.804688 3.8125 -8.828125 C 4.039062 -8.847656 4.421875 -8.738281 4.953125 -8.5 C 7.460938 -6.863281 9.601562 -6.125 11.375 -6.28125 C 13.15625 -6.445312 14.28125 -6.96875 14.75 -7.84375 C 15.21875 -8.71875 15.390625 -9.820312 15.265625 -11.15625 C 15.148438 -12.488281 14.578125 -13.523438 13.546875 -14.265625 C 12.523438 -15.003906 10.875 -15.863281 8.59375 -16.84375 C 6.3125 -17.820312 4.28125 -19.175781 2.5 -20.90625 C 0.71875 -22.632812 -0.257812 -24.5 -0.4375 -26.5 C -0.75 -30.050781 -0.0507812 -32.726562 1.65625 -34.53125 C 3.363281 -36.332031 6.015625 -37.390625 9.609375 -37.703125 C 11.796875 -37.898438 13.984375 -37.566406 16.171875 -36.703125 C 17.316406 -36.359375 17.882812 -35.945312 17.875 -35.46875 C 17.851562 -35.28125 17.84375 -34.992188 17.84375 -34.609375 C 17.394531 -32.828125 17.019531 -31.796875 16.71875 -31.515625 C 16.632812 -31.453125 16.425781 -31.40625 16.09375 -31.375 C 15.757812 -31.34375 14.851562 -31.523438 13.375 -31.921875 C 11.894531 -32.316406 10.65625 -32.46875 9.65625 -32.375 C 8.664062 -32.289062 7.867188 -31.867188 7.265625 -31.109375 C 6.660156 -30.359375 6.410156 -29.347656 6.515625 -28.078125 C 6.628906 -26.804688 7.300781 -25.703125 8.53125 -24.765625 C 9.769531 -23.835938 11.632812 -22.929688 14.125 -22.046875 C 16.738281 -20.953125 18.734375 -19.765625 20.109375 -18.484375 C 21.492188 -17.203125 22.289062 -15.390625 22.5 -13.046875 C 23.1875 -5.234375 20.234375 -1.03125 13.640625 -0.4375 C 8.710938 0 4.820312 -1.078125 1.96875 -3.671875 Z M 1.96875 -3.671875 "/></g></g><g style="fill:#000000;fill-opacity:1;"><g transform="translate(132.138167, 211.383951)"><path style="stroke:none" d="M 8.140625 -1.484375 L 6.4375 -30.640625 L 0.484375 -30.28125 C -0.285156 -30.269531 -0.789062 -30.453125 -1.03125 -30.828125 C -1.34375 -31.253906 -1.535156 -32.035156 -1.609375 -33.171875 C -1.710938 -34.984375 -1.222656 -35.921875 -0.140625 -35.984375 L 17.234375 -37 C 19.078125 -37.101562 20.03125 -36.664062 20.09375 -35.6875 C 20.25 -32.851562 19.5625 -31.394531 18.03125 -31.3125 L 12.6875 -31.046875 L 13.671875 -21.390625 L 14.859375 -1.96875 C 14.890625 -1.363281 14.894531 -0.96875 14.875 -0.78125 C 14.78125 -0.320312 14.179688 -0.0625 13.078125 0 C 9.859375 0.1875 8.210938 -0.304688 8.140625 -1.484375 Z M 8.140625 -1.484375 "/></g></g><g style="fill:#000000;fill-opacity:1;"><g transform="translate(154.078704, 210.07142)"><path style="stroke:none" d="M 13.25 -37.125 C 15.445312 -37.1875 16.65625 -36.726562 16.875 -35.75 L 20.5 -21.15625 L 24.328125 -1.703125 C 24.398438 -1.398438 24.4375 -1.113281 24.4375 -0.84375 C 24.445312 -0.570312 24.375 -0.34375 24.21875 -0.15625 C 24.070312 0.0195312 23.535156 0.125 22.609375 0.15625 C 19.785156 0.226562 18.257812 -0.332031 18.03125 -1.53125 L 16.09375 -11.34375 L 9.40625 -11.15625 L 8.1875 -1.21875 C 8.113281 -0.550781 8.003906 -0.101562 7.859375 0.125 C 7.722656 0.351562 7.523438 0.484375 7.265625 0.515625 C 7.015625 0.554688 6.601562 0.585938 6.03125 0.609375 L 4.703125 0.640625 C 3.585938 0.671875 2.882812 0.628906 2.59375 0.515625 C 1.882812 0.265625 1.484375 -0.0078125 1.390625 -0.3125 C 1.347656 -0.476562 1.320312 -0.625 1.3125 -0.75 C 1.3125 -0.875 1.585938 -2.984375 2.140625 -7.078125 C 2.703125 -11.179688 3.394531 -16.0625 4.21875 -21.71875 C 5.039062 -27.382812 5.578125 -31.097656 5.828125 -32.859375 C 6.085938 -34.617188 6.226562 -35.613281 6.25 -35.84375 C 6.351562 -36.570312 8.6875 -37 13.25 -37.125 Z M 11.984375 -30.828125 L 10.15625 -16.96875 L 14.890625 -17.109375 Z M 11.984375 -30.828125 "/></g></g><g style="fill:#000000;fill-opacity:1;"><g transform="translate(179.332881, 209.391879)"><path style="stroke:none" d="M 20.875 -5.546875 C 21.664062 -5.535156 22.054688 -5.019531 22.046875 -4 C 22.046875 -2.976562 22.03125 -2.210938 22 -1.703125 C 21.863281 -0.554688 21.347656 0.0859375 20.453125 0.234375 C 17.617188 0.640625 15.515625 0.835938 14.140625 0.828125 C 9.398438 0.804688 6.140625 -0.539062 4.359375 -3.21875 C 2.585938 -5.90625 1.71875 -10.738281 1.75 -17.71875 C 1.78125 -22.8125 2.191406 -26.703125 2.984375 -29.390625 C 3.773438 -32.085938 5.039062 -33.972656 6.78125 -35.046875 C 8.519531 -36.117188 11.117188 -36.644531 14.578125 -36.625 C 18.035156 -36.613281 20.5625 -36.0625 22.15625 -34.96875 C 22.46875 -34.75 22.625 -34.476562 22.625 -34.15625 C 22.625 -33.84375 22.46875 -33.25 22.15625 -32.375 C 21.851562 -31.5 21.566406 -30.878906 21.296875 -30.515625 C 21.023438 -30.148438 20.742188 -29.96875 20.453125 -29.96875 C 20.171875 -29.96875 19.945312 -29.984375 19.78125 -30.015625 C 17.394531 -30.503906 15.332031 -30.753906 13.59375 -30.765625 C 11.851562 -30.773438 10.71875 -29.820312 10.1875 -27.90625 C 9.65625 -26 9.378906 -22.898438 9.359375 -18.609375 C 9.335938 -14.328125 9.429688 -11.34375 9.640625 -9.65625 C 9.859375 -7.96875 10.269531 -6.785156 10.875 -6.109375 C 11.488281 -5.429688 12.453125 -5.085938 13.765625 -5.078125 C 15.085938 -5.078125 16.585938 -5.15625 18.265625 -5.3125 C 19.941406 -5.46875 20.8125 -5.546875 20.875 -5.546875 Z M 20.875 -5.546875 "/></g></g><g style="fill:#000000;fill-opacity:1;"><g transform="translate(202.61679, 209.459042)"><path style="stroke:none" d="M 18.609375 -34.296875 C 19.128906 -35.421875 20.457031 -35.941406 22.59375 -35.859375 C 24.726562 -35.785156 25.78125 -35.351562 25.75 -34.5625 C 25.75 -34.40625 25.695312 -34.226562 25.59375 -34.03125 L 17.796875 -19.28125 L 26.203125 0 C 26.421875 0.476562 26.523438 0.816406 26.515625 1.015625 C 26.503906 1.222656 26.4375 1.398438 26.3125 1.546875 C 26.195312 1.691406 25.570312 1.738281 24.4375 1.6875 C 23.3125 1.644531 22.109375 1.460938 20.828125 1.140625 C 19.546875 0.828125 18.773438 0.347656 18.515625 -0.296875 L 10.84375 -18.046875 L 10.890625 -19.484375 Z M 2.1875 -0.875 L 3.484375 -34.828125 C 3.503906 -35.523438 3.691406 -35.984375 4.046875 -36.203125 C 4.410156 -36.429688 5.070312 -36.53125 6.03125 -36.5 C 8.320312 -36.40625 9.460938 -35.753906 9.453125 -34.546875 L 9.625 -20.296875 L 8.9375 -0.703125 C 8.90625 -0.128906 8.859375 0.242188 8.796875 0.421875 C 8.679688 0.867188 8.066406 1.070312 6.953125 1.03125 C 3.734375 0.90625 2.144531 0.269531 2.1875 -0.875 Z M 2.1875 -0.875 "/></g></g><g style="fill:#000000;fill-opacity:1;"><g transform="translate(230.020143, 210.58005)"><path style="stroke:none" d="M 3.1875 -5.578125 L 4.90625 -5.46875 L 6.515625 -29.84375 L 5.09375 -29.9375 C 4.457031 -30.007812 4.039062 -30.242188 3.84375 -30.640625 C 3.65625 -31.109375 3.597656 -31.925781 3.671875 -33.09375 C 3.785156 -34.875 4.367188 -35.726562 5.421875 -35.65625 L 13.84375 -35.09375 C 15.25 -35.007812 15.921875 -34.476562 15.859375 -33.5 C 15.671875 -30.664062 15.019531 -29.285156 13.90625 -29.359375 L 12.703125 -29.4375 L 12.5625 -19.859375 L 11.625 -5.015625 L 13.0625 -4.921875 C 14.175781 -4.816406 14.703125 -4.269531 14.640625 -3.28125 C 14.390625 -0.46875 13.515625 0.890625 12.015625 0.796875 L 3.015625 0.203125 C 2.441406 0.128906 2.054688 -0.101562 1.859375 -0.5 C 1.660156 -0.96875 1.601562 -1.804688 1.6875 -3.015625 C 1.800781 -4.785156 2.300781 -5.640625 3.1875 -5.578125 Z M 3.1875 -5.578125 "/></g></g><g style="fill:#000000;fill-opacity:1;"><g transform="translate(245.142309, 211.531153)"><path style="stroke:none" d="M 8.28125 -0.265625 L 10.90625 -29.34375 L 4.953125 -29.875 C 4.203125 -29.976562 3.734375 -30.234375 3.546875 -30.640625 C 3.296875 -31.109375 3.222656 -31.910156 3.328125 -33.046875 C 3.492188 -34.859375 4.113281 -35.71875 5.1875 -35.625 L 22.53125 -34.046875 C 24.363281 -33.878906 25.234375 -33.304688 25.140625 -32.328125 C 24.878906 -29.492188 23.988281 -28.144531 22.46875 -28.28125 L 17.15625 -28.8125 L 16.703125 -19.125 L 14.984375 0.25 C 14.929688 0.851562 14.878906 1.25 14.828125 1.4375 C 14.671875 1.875 14.039062 2.039062 12.9375 1.9375 C 9.726562 1.644531 8.175781 0.910156 8.28125 -0.265625 Z M 8.28125 -0.265625 "/></g></g><g style="fill:#ffffff;fill-opacity:1;"><g transform="translate(140.229596, 251.431661)"><path style="stroke:none" d="M 6.875 -2.28125 L 3.1875 -2 L 2.734375 -0.203125 L 0.21875 -0.015625 L 3.03125 -10.140625 L 5.828125 -10.359375 L 10.140625 -0.765625 L 7.59375 -0.578125 Z M 6.109375 -4.078125 L 4.625 -7.59375 L 3.671875 -3.890625 Z M 6.109375 -4.078125 "/></g></g><g style="fill:#ffffff;fill-opacity:1;"><g transform="translate(150.504611, 250.654859)"><path style="stroke:none" d="M 4.4375 -0.171875 C 3.71875 -0.128906 3.066406 -0.207031 2.484375 -0.40625 C 1.898438 -0.601562 1.421875 -0.921875 1.046875 -1.359375 C 0.679688 -1.796875 0.472656 -2.335938 0.421875 -2.984375 L 2.984375 -3.140625 C 3.035156 -2.773438 3.175781 -2.503906 3.40625 -2.328125 C 3.632812 -2.148438 3.921875 -2.070312 4.265625 -2.09375 C 4.609375 -2.113281 4.878906 -2.210938 5.078125 -2.390625 C 5.273438 -2.566406 5.367188 -2.800781 5.359375 -3.09375 C 5.335938 -3.332031 5.238281 -3.523438 5.0625 -3.671875 C 4.894531 -3.828125 4.691406 -3.945312 4.453125 -4.03125 C 4.210938 -4.113281 3.863281 -4.210938 3.40625 -4.328125 C 2.757812 -4.484375 2.226562 -4.644531 1.8125 -4.8125 C 1.40625 -4.988281 1.046875 -5.257812 0.734375 -5.625 C 0.421875 -5.988281 0.242188 -6.476562 0.203125 -7.09375 C 0.148438 -8.019531 0.441406 -8.765625 1.078125 -9.328125 C 1.710938 -9.890625 2.5625 -10.203125 3.625 -10.265625 C 4.707031 -10.328125 5.597656 -10.117188 6.296875 -9.640625 C 6.992188 -9.160156 7.390625 -8.453125 7.484375 -7.515625 L 4.890625 -7.359375 C 4.847656 -7.679688 4.710938 -7.925781 4.484375 -8.09375 C 4.253906 -8.269531 3.976562 -8.347656 3.65625 -8.328125 C 3.363281 -8.304688 3.132812 -8.210938 2.96875 -8.046875 C 2.800781 -7.878906 2.726562 -7.648438 2.75 -7.359375 C 2.769531 -7.046875 2.929688 -6.804688 3.234375 -6.640625 C 3.546875 -6.484375 4.023438 -6.320312 4.671875 -6.15625 C 5.316406 -5.976562 5.84375 -5.800781 6.25 -5.625 C 6.664062 -5.445312 7.03125 -5.179688 7.34375 -4.828125 C 7.65625 -4.472656 7.828125 -4 7.859375 -3.40625 C 7.890625 -2.84375 7.773438 -2.320312 7.515625 -1.84375 C 7.253906 -1.375 6.859375 -0.988281 6.328125 -0.6875 C 5.804688 -0.382812 5.175781 -0.210938 4.4375 -0.171875 Z M 4.4375 -0.171875 "/></g></g><g style="fill:#ffffff;fill-opacity:1;"><g transform="translate(159.078236, 250.142053)"><path style="stroke:none" d="M 6.609375 -0.28125 L 3.09375 -4.5 L 3.28125 -0.140625 L 0.875 -0.03125 L 0.453125 -9.90625 L 2.859375 -10.015625 L 3.046875 -5.6875 L 6.15625 -10.15625 L 8.96875 -10.28125 L 5.359375 -5.28125 L 9.53125 -0.40625 Z M 6.609375 -0.28125 "/></g></g><g style="fill:#ffffff;fill-opacity:1;"><g transform="translate(168.834732, 249.745035)"><path style="stroke:none" d=""/></g></g><g style="fill:#ffffff;fill-opacity:1;"><g transform="translate(171.767044, 249.63118)"><path style="stroke:none" d="M 7 -1.890625 L 3.3125 -1.8125 L 2.75 -0.046875 L 0.21875 0 L 3.609375 -9.96875 L 6.40625 -10.015625 L 10.171875 -0.203125 L 7.609375 -0.140625 Z M 6.34375 -3.734375 L 5.046875 -7.3125 L 3.90625 -3.6875 Z M 6.34375 -3.734375 "/></g></g><g style="fill:#ffffff;fill-opacity:1;"><g transform="translate(182.062293, 249.4309)"><path style="stroke:none" d="M 9.71875 0 L 7.3125 0 L 3.28125 -6.09375 L 3.28125 0 L 0.875 0 L 0.875 -9.890625 L 3.28125 -9.890625 L 7.3125 -3.765625 L 7.3125 -9.890625 L 9.71875 -9.890625 Z M 9.71875 0 "/></g></g><g style="fill:#ffffff;fill-opacity:1;"><g transform="translate(192.571199, 249.425724)"><path style="stroke:none" d="M 4.75 -9.8125 C 5.789062 -9.789062 6.695312 -9.5625 7.46875 -9.125 C 8.238281 -8.695312 8.828125 -8.109375 9.234375 -7.359375 C 9.648438 -6.609375 9.851562 -5.742188 9.84375 -4.765625 C 9.820312 -3.796875 9.585938 -2.9375 9.140625 -2.1875 C 8.703125 -1.445312 8.085938 -0.878906 7.296875 -0.484375 C 6.515625 -0.0859375 5.609375 0.0976562 4.578125 0.078125 L 0.875 0.015625 L 1.046875 -9.875 Z M 4.453125 -2 C 5.359375 -1.976562 6.070312 -2.210938 6.59375 -2.703125 C 7.113281 -3.203125 7.382812 -3.90625 7.40625 -4.8125 C 7.414062 -5.726562 7.171875 -6.441406 6.671875 -6.953125 C 6.171875 -7.460938 5.46875 -7.726562 4.5625 -7.75 L 3.421875 -7.765625 L 3.3125 -2.015625 Z M 4.453125 -2 "/></g></g><g style="fill:#ffffff;fill-opacity:1;"><g transform="translate(202.754476, 249.630462)"><path style="stroke:none" d=""/></g></g><g style="fill:#ffffff;fill-opacity:1;"><g transform="translate(205.688272, 249.695543)"><path style="stroke:none" d="M 7.109375 -1.453125 L 3.421875 -1.609375 L 2.75 0.109375 L 0.21875 0.015625 L 4.203125 -9.71875 L 7 -9.59375 L 10.15625 0.421875 L 7.609375 0.3125 Z M 6.5625 -3.34375 L 5.484375 -7 L 4.125 -3.4375 Z M 6.5625 -3.34375 "/></g></g><g style="fill:#ffffff;fill-opacity:1;"><g transform="translate(215.976568, 250.123436)"><path style="stroke:none" d="M 9.703125 0.59375 L 7.296875 0.4375 L 3.65625 -5.875 L 3.28125 0.203125 L 0.875 0.046875 L 1.46875 -9.828125 L 3.875 -9.671875 L 7.53125 -3.328125 L 7.890625 -9.4375 L 10.296875 -9.28125 Z M 9.703125 0.59375 "/></g></g><g style="fill:#ffffff;fill-opacity:1;"><g transform="translate(226.471626, 250.76642)"><path style="stroke:none" d="M 4.4375 0.4375 C 3.707031 0.382812 3.066406 0.21875 2.515625 -0.0625 C 1.960938 -0.34375 1.535156 -0.722656 1.234375 -1.203125 C 0.929688 -1.691406 0.796875 -2.253906 0.828125 -2.890625 L 3.375 -2.6875 C 3.375 -2.332031 3.472656 -2.050781 3.671875 -1.84375 C 3.878906 -1.632812 4.15625 -1.515625 4.5 -1.484375 C 4.851562 -1.460938 5.140625 -1.523438 5.359375 -1.671875 C 5.585938 -1.828125 5.710938 -2.046875 5.734375 -2.328125 C 5.753906 -2.566406 5.6875 -2.769531 5.53125 -2.9375 C 5.382812 -3.113281 5.191406 -3.257812 4.953125 -3.375 C 4.722656 -3.5 4.390625 -3.644531 3.953125 -3.8125 C 3.335938 -4.0625 2.835938 -4.300781 2.453125 -4.53125 C 2.078125 -4.757812 1.757812 -5.078125 1.5 -5.484375 C 1.238281 -5.890625 1.128906 -6.398438 1.171875 -7.015625 C 1.242188 -7.929688 1.628906 -8.625 2.328125 -9.09375 C 3.035156 -9.5625 3.921875 -9.753906 4.984375 -9.671875 C 6.078125 -9.585938 6.929688 -9.257812 7.546875 -8.6875 C 8.171875 -8.113281 8.46875 -7.363281 8.4375 -6.4375 L 5.859375 -6.640625 C 5.859375 -6.960938 5.753906 -7.21875 5.546875 -7.40625 C 5.347656 -7.601562 5.082031 -7.710938 4.75 -7.734375 C 4.457031 -7.765625 4.21875 -7.707031 4.03125 -7.5625 C 3.84375 -7.425781 3.738281 -7.210938 3.71875 -6.921875 C 3.6875 -6.609375 3.8125 -6.351562 4.09375 -6.15625 C 4.382812 -5.957031 4.84375 -5.726562 5.46875 -5.46875 C 6.09375 -5.195312 6.597656 -4.945312 6.984375 -4.71875 C 7.367188 -4.488281 7.6875 -4.175781 7.9375 -3.78125 C 8.1875 -3.382812 8.289062 -2.890625 8.25 -2.296875 C 8.195312 -1.742188 8.015625 -1.25 7.703125 -0.8125 C 7.390625 -0.375 6.953125 -0.0390625 6.390625 0.1875 C 5.828125 0.414062 5.175781 0.5 4.4375 0.4375 Z M 4.4375 0.4375 "/></g></g></g></svg>